<svg preserveAspectRatio="none" overflow="visible" style="display: block;" width="16" height="16" viewBox="0 0 16 16" fill="none" xmlns="http://www.w3.org/2000/svg">
<g id="Frame">
<path id="Vector" d="M5 7C6.10457 7 7 6.10457 7 5C7 3.89543 6.10457 3 5 3C3.89543 3 3 3.89543 3 5C3 6.10457 3.89543 7 5 7Z" stroke="white" stroke-width="1.4" stroke-linecap="round" stroke-linejoin="round"/>
<path id="Vector_2" d="M11 7C12.1046 7 13 6.10457 13 5C13 3.89543 12.1046 3 11 3C9.89543 3 9 3.89543 9 5C9 6.10457 9.89543 7 11 7Z" stroke="white" stroke-width="1.4" stroke-linecap="round" stroke-linejoin="round"/>
<path id="Vector_3" d="M1 13V12C1 10.9391 1.42143 9.92172 2.17157 9.17157C2.92172 8.42143 3.93913 8 5 8C6.06087 8 7.07828 8.42143 7.82843 9.17157C8.57857 9.92172 9 10.9391 9 12V13M9 9C12 8 15 10 15 13" stroke="white" stroke-width="1.4" stroke-linecap="round" stroke-linejoin="round"/>
</g>
</svg>
