<svg width="100" height="100" viewBox="0 0 100 100" fill="none" xmlns="http://www.w3.org/2000/svg">
<path opacity="0.35" d="M64.5833 87.5H35.4167C22.7792 87.5 12.5 77.2208 12.5 64.5833V35.4167C12.5 22.7792 22.7792 12.5 35.4167 12.5H64.5833C77.2208 12.5 87.5 22.7792 87.5 35.4167V64.5833C87.5 77.2208 77.2208 87.5 64.5833 87.5ZM35.4167 25C29.675 25 25 29.675 25 35.4167V64.5833C25 70.325 29.675 75 35.4167 75H64.5833C70.325 75 75 70.325 75 64.5833V35.4167C75 29.675 70.325 25 64.5833 25H35.4167Z" fill="#7AA2FF"/>
<path d="M54.1667 33.3332H45.8333C41.2292 33.3332 37.5 29.604 37.5 24.9998V12.4998C37.5 7.89567 41.2292 4.1665 45.8333 4.1665H54.1667C58.7708 4.1665 62.5 7.89567 62.5 12.4998V24.9998C62.5 29.604 58.7708 33.3332 54.1667 33.3332Z" fill="#7AA2FF"/>
<path d="M33.3332 45.8333V54.1667C33.3332 58.7708 29.604 62.5 24.9998 62.5H12.4998C7.89567 62.5 4.1665 58.7708 4.1665 54.1667V45.8333C4.1665 41.2292 7.89567 37.5 12.4998 37.5H24.9998C29.604 37.5 33.3332 41.2292 33.3332 45.8333Z" fill="#7AA2FF"/>
<path d="M45.8333 66.6665H54.1667C58.7708 66.6665 62.5 70.3957 62.5 74.9998V87.4998C62.5 92.104 58.7708 95.8332 54.1667 95.8332H45.8333C41.2292 95.8332 37.5 92.104 37.5 87.4998V74.9998C37.5 70.3957 41.2292 66.6665 45.8333 66.6665Z" fill="#7AA2FF"/>
<path d="M66.6665 54.1667V45.8333C66.6665 41.2292 70.3957 37.5 74.9998 37.5H87.4998C92.104 37.5 95.8332 41.2292 95.8332 45.8333V54.1667C95.8332 58.7708 92.104 62.5 87.4998 62.5H74.9998C70.3957 62.5 66.6665 58.7708 66.6665 54.1667Z" fill="#7AA2FF"/>
</svg>
