<svg width="100" height="100" viewBox="0 0 100 100" fill="none" xmlns="http://www.w3.org/2000/svg">
<path d="M31.25 15.625C26.0719 15.625 21.875 19.8219 21.875 25V75C21.875 80.1781 26.0719 84.375 31.25 84.375H68.75C73.9281 84.375 78.125 80.1781 78.125 75V44.7754C78.125 42.2879 77.1362 39.9048 75.3784 38.147L55.603 18.3716C53.8437 16.6138 51.4605 15.625 48.9746 15.625H31.25ZM31.25 21.875H46.875V37.5C46.875 42.6781 51.0719 46.875 56.25 46.875H71.875V71.3562L61.5448 62.0697C59.9557 60.64 57.546 60.643 55.9601 62.0758L45.5017 71.524L40.2222 67.0074C38.6565 65.6684 36.3479 65.6729 34.787 67.0166L28.125 72.7539V25C28.125 23.2734 29.5234 21.875 31.25 21.875ZM53.125 24.7314L69.0186 40.625H56.25C54.5234 40.625 53.125 39.2266 53.125 37.5V24.7314ZM39.0625 50C36.4734 50 34.375 52.0984 34.375 54.6875C34.375 57.2766 36.4734 59.375 39.0625 59.375C41.6516 59.375 43.75 57.2766 43.75 54.6875C43.75 52.0984 41.6516 50 39.0625 50Z" fill="#085AFC"/>
</svg>
